<svg width="418.8125px" height="117.2px" xmlns="http://www.w3.org/2000/svg" viewBox="40.59375 16.4 418.8125 117.2" style="background: rgba(0, 0, 0, 0);" preserveAspectRatio="xMidYMid"><defs><filter id="editing-metal-beveled"><feGaussianBlur stdDeviation="4" in="SourceAlpha" result="blur"></feGaussianBlur><feSpecularLighting surfaceScale="5" specularConstant="0.8" specularExponent="7.5" lighting-color="#fff" in="blur" result="specular"><fePointLight x="-250" y="-50" z="300"></fePointLight></feSpecularLighting><feComposite operator="in" in="specular" in2="SourceAlpha" result="comp"></feComposite><feComposite in="SourceGraphic" in2="comp" operator="arithmetic" k1="0" k2="1" k3="1" k4="0"></feComposite></filter></defs><g filter="url(#editing-metal-beveled)"><g transform="translate(88.66997528076172, 100.39000129699707)"><path d="M11.41-26.41L29.22-26.41L29.22-21.41L11.41-21.41L11.41-5.16L19.66-5.16L19.66-5.16Q24.31-5.16 27.47-5.22L27.47-5.22L27.47-5.22Q30.63-5.28 32.50-5.63L32.50-5.63L32.50 0L5 0L5 0Q5.34-1.88 5.41-5.42L5.41-5.42L5.41-5.42Q5.47-8.97 5.47-13.59L5.47-13.59L5.47-32.03L5.47-32.03Q5.47-36.66 5.41-40.20L5.41-40.20L5.41-40.20Q5.34-43.75 5-45.63L5-45.63L31.56-45.63L31.56-40.47L11.41-40.47L11.41-26.41ZM65.78-20.63L65.78 0L60 0L60-17.81L60-17.81Q60-20.72 59.78-22.52L59.78-22.52L59.78-22.52Q59.56-24.31 59.05-25.33L59.05-25.33L59.05-25.33Q58.53-26.34 57.66-26.69L57.66-26.69L57.66-26.69Q56.78-27.03 55.47-27.03L55.47-27.03L55.47-27.03Q54.31-27.03 53.16-26.56L53.16-26.56L53.16-26.56Q52-26.09 50.95-25.23L50.95-25.23L50.95-25.23Q49.91-24.38 49.02-23.20L49.02-23.20L49.02-23.20Q48.13-22.03 47.50-20.63L47.50-20.63L47.50 0L41.72 0L41.72-19.22L41.72-19.22Q41.72-23.84 41.19-27.05L41.19-27.05L41.19-27.05Q40.66-30.25 40.16-31.88L40.16-31.88L45.78-31.88L45.78-31.88Q46.13-30.88 46.38-29.52L46.38-29.52L46.38-29.52Q46.63-28.16 46.78-27.03L46.78-27.03L46.78-27.03Q48.22-28.69 49.53-29.75L49.53-29.75L49.53-29.75Q50.84-30.81 52.14-31.42L52.14-31.42L52.14-31.42Q53.44-32.03 54.72-32.27L54.72-32.27L54.72-32.27Q56-32.50 57.34-32.50L57.34-32.50L57.34-32.50Q58.88-32.50 60.13-32.06L60.13-32.06L60.13-32.06Q61.38-31.63 62.33-30.91L62.33-30.91L62.33-30.91Q63.28-30.19 63.97-29.23L63.97-29.23L63.97-29.23Q64.66-28.28 65.03-27.25L65.03-27.25L65.03-27.25Q66.50-28.84 67.88-29.86L67.88-29.86L67.88-29.86Q69.25-30.88 70.56-31.45L70.56-31.45L70.56-31.45Q71.88-32.03 73.14-32.27L73.14-32.27L73.14-32.27Q74.41-32.50 75.63-32.50L75.63-32.50L75.63-32.50Q78-32.50 79.63-31.73L79.63-31.73L79.63-31.73Q81.25-30.97 82.23-29.47L82.23-29.47L82.23-29.47Q83.22-27.97 83.64-25.75L83.64-25.75L83.64-25.75Q84.06-23.53 84.06-20.63L84.06-20.63L84.06 0L78.28 0L78.28-17.19L78.28-17.19Q78.28-20.22 78.06-22.13L78.06-22.13L78.06-22.13Q77.84-24.03 77.33-25.13L77.33-25.13L77.33-25.13Q76.81-26.22 75.94-26.63L75.94-26.63L75.94-26.63Q75.06-27.03 73.75-27.03L73.75-27.03L73.75-27.03Q72.59-27.03 71.47-26.58L71.47-26.58L71.47-26.58Q70.34-26.13 69.30-25.30L69.30-25.30L69.30-25.30Q68.25-24.47 67.36-23.28L67.36-23.28L67.36-23.28Q66.47-22.09 65.78-20.63L65.78-20.63ZM118.44-20.63L118.44 0L112.66 0L112.66-17.81L112.66-17.81Q112.66-20.72 112.44-22.52L112.44-22.52L112.44-22.52Q112.22-24.31 111.70-25.33L111.70-25.33L111.70-25.33Q111.19-26.34 110.31-26.69L110.31-26.69L110.31-26.69Q109.44-27.03 108.13-27.03L108.13-27.03L108.13-27.03Q106.97-27.03 105.81-26.56L105.81-26.56L105.81-26.56Q104.66-26.09 103.61-25.23L103.61-25.23L103.61-25.23Q102.56-24.38 101.67-23.20L101.67-23.20L101.67-23.20Q100.78-22.03 100.16-20.63L100.16-20.63L100.16 0L94.38 0L94.38-19.22L94.38-19.22Q94.38-23.84 93.84-27.05L93.84-27.05L93.84-27.05Q93.31-30.25 92.81-31.88L92.81-31.88L98.44-31.88L98.44-31.88Q98.78-30.88 99.03-29.52L99.03-29.52L99.03-29.52Q99.28-28.16 99.44-27.03L99.44-27.03L99.44-27.03Q100.88-28.69 102.19-29.75L102.19-29.75L102.19-29.75Q103.50-30.81 104.80-31.42L104.80-31.42L104.80-31.42Q106.09-32.03 107.38-32.27L107.38-32.27L107.38-32.27Q108.66-32.50 110-32.50L110-32.50L110-32.50Q111.53-32.50 112.78-32.06L112.78-32.06L112.78-32.06Q114.03-31.63 114.98-30.91L114.98-30.91L114.98-30.91Q115.94-30.19 116.63-29.23L116.63-29.23L116.63-29.23Q117.31-28.28 117.69-27.25L117.69-27.25L117.69-27.25Q119.16-28.84 120.53-29.86L120.53-29.86L120.53-29.86Q121.91-30.88 123.22-31.45L123.22-31.45L123.22-31.45Q124.53-32.03 125.80-32.27L125.80-32.27L125.80-32.27Q127.06-32.50 128.28-32.50L128.28-32.50L128.28-32.50Q130.66-32.50 132.28-31.73L132.28-31.73L132.28-31.73Q133.91-30.97 134.89-29.47L134.89-29.47L134.89-29.47Q135.88-27.97 136.30-25.75L136.30-25.75L136.30-25.75Q136.72-23.53 136.72-20.63L136.72-20.63L136.72 0L130.94 0L130.94-17.19L130.94-17.19Q130.94-20.22 130.72-22.13L130.72-22.13L130.72-22.13Q130.50-24.03 129.98-25.13L129.98-25.13L129.98-25.13Q129.47-26.22 128.59-26.63L128.59-26.63L128.59-26.63Q127.72-27.03 126.41-27.03L126.41-27.03L126.41-27.03Q125.25-27.03 124.13-26.58L124.13-26.58L124.13-26.58Q123-26.13 121.95-25.30L121.95-25.30L121.95-25.30Q120.91-24.47 120.02-23.28L120.02-23.28L120.02-23.28Q119.13-22.09 118.44-20.63L118.44-20.63ZM167.34-24.84L167.34-26.88L167.34-26.88Q166.56-27.03 165.08-27.27L165.08-27.27L165.08-27.27Q163.59-27.50 161.25-27.50L161.25-27.50L161.25-27.50Q158.19-27.50 156.14-26.27L156.14-26.27L156.14-26.27Q154.09-25.03 152.88-22.98L152.88-22.98L152.88-22.98Q151.66-20.94 151.14-18.28L151.14-18.28L151.14-18.28Q150.63-15.63 150.63-12.81L150.63-12.81L150.63-12.81Q150.63-11 150.98-9.48L150.98-9.48L150.98-9.48Q151.34-7.97 151.97-6.86L151.97-6.86L151.97-6.86Q152.59-5.75 153.41-5.14L153.41-5.14L153.41-5.14Q154.22-4.53 155.16-4.53L155.16-4.53L155.16-4.53Q156.19-4.53 157.27-5.22L157.27-5.22L157.27-5.22Q158.34-5.91 159.39-7.08L159.39-7.08L159.39-7.08Q160.44-8.25 161.44-9.78L161.44-9.78L161.44-9.78Q162.44-11.31 163.31-13.02L163.31-13.02L163.31-13.02Q164.19-14.72 164.94-16.47L164.94-16.47L164.94-16.47Q165.69-18.22 166.22-19.80L166.22-19.80L166.22-19.80Q166.75-21.38 167.05-22.69L167.05-22.69L167.05-22.69Q167.34-24 167.34-24.84L167.34-24.84ZM175.16 0L169.69 0L169.69 0Q169.34-0.75 169.08-2.25L169.08-2.25L169.08-2.25Q168.81-3.75 168.64-5.48L168.64-5.48L168.64-5.48Q168.47-7.22 168.38-8.88L168.38-8.88L168.38-8.88Q168.28-10.53 168.28-11.56L168.28-11.56L168.28-14.69L168.28-14.69Q167.28-12.03 165.89-9.28L165.89-9.28L165.89-9.28Q164.50-6.53 162.72-4.30L162.72-4.30L162.72-4.30Q160.94-2.06 158.80-0.64L158.80-0.64L158.80-0.64Q156.66 0.78 154.22 0.78L154.22 0.78L154.22 0.78Q152.25 0.78 150.53-0.09L150.53-0.09L150.53-0.09Q148.81-0.97 147.55-2.69L147.55-2.69L147.55-2.69Q146.28-4.41 145.56-6.95L145.56-6.95L145.56-6.95Q144.84-9.50 144.84-12.81L144.84-12.81L144.84-12.81Q144.84-16.53 145.84-20.08L145.84-20.08L145.84-20.08Q146.84-23.63 148.91-26.39L148.91-26.39L148.91-26.39Q150.97-29.16 154.16-30.83L154.16-30.83L154.16-30.83Q157.34-32.50 161.72-32.50L161.72-32.50L161.72-32.50Q164.75-32.50 167.75-32.11L167.75-32.11L167.75-32.11Q170.75-31.72 173.13-31.09L173.13-31.09L173.13-16.56L173.13-16.56Q173.13-10.66 173.69-6.64L173.69-6.64L173.69-6.64Q174.25-2.63 175.16 0L175.16 0ZM210.31 0L204.53 0L204.53-17.19L204.53-17.19Q204.53-20.13 204.14-22.03L204.14-22.03L204.14-22.03Q203.75-23.94 202.98-25.05L202.98-25.05L202.98-25.05Q202.22-26.16 201.05-26.59L201.05-26.59L201.05-26.59Q199.88-27.03 198.28-27.03L198.28-27.03L198.28-27.03Q196.59-27.03 194.98-26.23L194.98-26.23L194.98-26.23Q193.38-25.44 192.03-24.17L192.03-24.17L192.03-24.17Q190.69-22.91 189.66-21.31L189.66-21.31L189.66-21.31Q188.63-19.72 188.13-18.13L188.13-18.13L188.13 0L182.34 0L182.34-19.22L182.34-19.22Q182.34-23.84 181.83-27.05L181.83-27.05L181.83-27.05Q181.31-30.25 180.78-31.88L180.78-31.88L186.41-31.88L186.41-31.88Q186.59-31.38 186.78-30.58L186.78-30.58L186.78-30.58Q186.97-29.78 187.13-28.91L187.13-28.91L187.13-28.91Q187.28-28.03 187.41-27.19L187.41-27.19L187.66-25.78L187.66-25.78Q190.63-29.34 193.66-30.92L193.66-30.92L193.66-30.92Q196.69-32.50 200-32.50L200-32.50L200-32.50Q205-32.50 207.66-29.23L207.66-29.23L207.66-29.23Q210.31-25.97 210.31-19.53L210.31-19.53L210.31 0ZM248.59 0L243.28 0L243.28 0Q243.06-0.53 242.81-1.25L242.81-1.25L242.81-1.25Q242.56-1.97 242.33-2.78L242.33-2.78L242.33-2.78Q242.09-3.59 241.89-4.48L241.89-4.48L241.89-4.48Q241.69-5.38 241.56-6.25L241.56-6.25L241.56-6.25Q238.72-2.78 235.70-1L235.70-1L235.70-1Q232.69 0.78 229.38 0.78L229.38 0.78L229.38 0.78Q219.38 0.78 219.38-12.66L219.38-12.66L219.38-21.88L219.38-21.88Q219.38-23.38 219.36-24.59L219.36-24.59L219.36-24.59Q219.34-25.81 219.28-26.95L219.28-26.95L219.28-26.95Q219.22-28.09 219.09-29.28L219.09-29.28L219.09-29.28Q218.97-30.47 218.75-31.88L218.75-31.88L225.16-31.88L225.16-14.53L225.16-14.53Q225.16-11.88 225.42-9.95L225.42-9.95L225.42-9.95Q225.69-8.03 226.31-6.80L226.31-6.80L226.31-6.80Q226.94-5.56 227.95-4.97L227.95-4.97L227.95-4.97Q228.97-4.38 230.47-4.38L230.47-4.38L230.47-4.38Q231.84-4.38 233.41-5.20L233.41-5.20L233.41-5.20Q234.97-6.03 236.39-7.31L236.39-7.31L236.39-7.31Q237.81-8.59 238.98-10.14L238.98-10.14L238.98-10.14Q240.16-11.69 240.78-13.13L240.78-13.13L240.78-21.88L240.78-21.88Q240.78-23.41 240.77-24.64L240.77-24.64L240.77-24.64Q240.75-25.88 240.69-27L240.69-27L240.69-27Q240.63-28.13 240.50-29.28L240.50-29.28L240.50-29.28Q240.38-30.44 240.16-31.88L240.16-31.88L246.56-31.88L246.56-14.06L246.56-14.06Q246.56-9.50 247.08-6.08L247.08-6.08L247.08-6.08Q247.59-2.66 248.59 0L248.59 0ZM282.47-15.16L260.31-15.16L260.31-15.16Q260.41-12.41 261.17-10.38L261.17-10.38L261.17-10.38Q261.94-8.34 263.27-7.02L263.27-7.02L263.27-7.02Q264.59-5.69 266.39-5.03L266.39-5.03L266.39-5.03Q268.19-4.38 270.31-4.38L270.31-4.38L270.31-4.38Q273.34-4.38 276.25-5.06L276.25-5.06L276.25-5.06Q279.16-5.75 282.03-7.50L282.03-7.50L282.66-2.34L282.66-2.34Q281-1.50 279.41-0.91L279.41-0.91L279.41-0.91Q277.81-0.31 276.22 0.06L276.22 0.06L276.22 0.06Q274.63 0.44 272.98 0.61L272.98 0.61L272.98 0.61Q271.34 0.78 269.53 0.78L269.53 0.78L269.53 0.78Q266.53 0.78 263.81-0.27L263.81-0.27L263.81-0.27Q261.09-1.31 259.03-3.36L259.03-3.36L259.03-3.36Q256.97-5.41 255.75-8.44L255.75-8.44L255.75-8.44Q254.53-11.47 254.53-15.47L254.53-15.47L254.53-15.47Q254.53-19.34 255.58-22.48L255.58-22.48L255.58-22.48Q256.63-25.63 258.56-27.86L258.56-27.86L258.56-27.86Q260.50-30.09 263.28-31.30L263.28-31.30L263.28-31.30Q266.06-32.50 269.53-32.50L269.53-32.50L269.53-32.50Q272.09-32.50 274.06-31.89L274.06-31.89L274.06-31.89Q276.03-31.28 277.47-30.20L277.47-30.20L277.47-30.20Q278.91-29.13 279.88-27.69L279.88-27.69L279.88-27.69Q280.84-26.25 281.42-24.59L281.42-24.59L281.42-24.59Q282-22.94 282.25-21.14L282.25-21.14L282.25-21.14Q282.50-19.34 282.50-17.59L282.50-17.59L282.50-16.38L282.50-16.38Q282.50-15.59 282.47-15.16L282.47-15.16ZM269.06-27.81L269.06-27.81L269.06-27.81Q265.63-27.81 263.44-25.80L263.44-25.80L263.44-25.80Q261.25-23.78 260.56-19.53L260.56-19.53L276.88-19.53L276.88-19.53Q276.88-21.53 276.30-23.08L276.30-23.08L276.30-23.08Q275.72-24.63 274.67-25.69L274.67-25.69L274.67-25.69Q273.63-26.75 272.19-27.28L272.19-27.28L272.19-27.28Q270.75-27.81 269.06-27.81ZM297.50-50L297.50-14.84L297.50-14.84Q297.50-13.34 297.55-11.31L297.55-11.31L297.55-11.31Q297.59-9.28 297.67-7.19L297.67-7.19L297.67-7.19Q297.75-5.09 297.86-3.19L297.86-3.19L297.86-3.19Q297.97-1.28 298.13 0L298.13 0L291.72 0L291.72-35.31L291.72-35.31Q291.72-39.88 291.56-43.58L291.56-43.58L291.56-43.58Q291.41-47.28 291.09-50L291.09-50L297.50-50ZM309.22-3.44L309.22-3.44L309.22-3.44Q309.22-4.31 309.55-5.08L309.55-5.08L309.55-5.08Q309.88-5.84 310.45-6.42L310.45-6.42L310.45-6.42Q311.03-7 311.80-7.33L311.80-7.33L311.80-7.33Q312.56-7.66 313.44-7.66L313.44-7.66L313.44-7.66Q314.31-7.66 315.08-7.33L315.08-7.33L315.08-7.33Q315.84-7 316.42-6.42L316.42-6.42L316.42-6.42Q317-5.84 317.33-5.08L317.33-5.08L317.33-5.08Q317.66-4.31 317.66-3.44L317.66-3.44L317.66-3.44Q317.66-2.56 317.33-1.80L317.33-1.80L317.33-1.80Q317-1.03 316.42-0.45L316.42-0.45L316.42-0.45Q315.84 0.13 315.08 0.45L315.08 0.45L315.08 0.45Q314.31 0.78 313.44 0.78L313.44 0.78L313.44 0.78Q312.56 0.78 311.80 0.45L311.80 0.45L311.80 0.45Q311.03 0.13 310.45-0.45L310.45-0.45L310.45-0.45Q309.88-1.03 309.55-1.80L309.55-1.80L309.55-1.80Q309.22-2.56 309.22-3.44Z" fill="#444"></path></g></g><style>text {
  font-size: 64px;
  font-family: Arial Black;
  dominant-baseline: central;
  text-anchor: middle;
}</style></svg>