<svg xmlns="http://www.w3.org/2000/svg" viewBox="0 79.95000457763672 259.04998779296875 38" data-asc="1.058"><defs/><g><g><g transform="translate(0, 0)"><path d=""/></g><g transform="translate(0, 64.55)"><path d="M0 17.90L26 17.90L26.50 27.80L25.60 27.80Q23.50 22.75 21.20 20.88Q18.90 19.00 14.45 19.00L12.70 19.00L12.70 34.45L14.40 34.45Q16.75 34.45 18.35 32.68Q19.95 30.90 20.60 27.90L21.35 27.90L21.35 42.70L20.50 42.70Q19.60 38.95 18.07 37.35Q16.55 35.75 13.90 35.75L12.70 35.75L12.70 51.80L14.60 51.80Q19.20 51.80 22.43 49.05Q25.65 46.30 26.85 42.00L27.85 42.00L27.45 52.90L0 52.90L0 51.80L2.95 51.80L2.95 19.00L0 19.00L0 17.90ZM30.65 29.10L42.70 29.10L42.70 33.70Q44.35 28.60 49.98 28.60Q55.60 28.60 56.80 34Q58.55 28.60 64.15 28.60Q71.50 28.60 71.50 36.95L71.50 52.00L74.30 52.00L74.30 52.90L60.45 52.90L60.45 52.00L62.20 52.00L62.20 35.75Q62.20 31.95 61.55 31.30Q61.25 31.00 60.75 31.00Q59.30 31.00 58.20 32.95Q57.10 34.90 57.10 37.90L57.10 52.00L58.90 52.00L58.90 52.90L46.05 52.90L46.05 52.00L47.80 52.00L47.80 35.75Q47.80 31.95 47.15 31.30Q46.85 31.00 46.35 31.00Q44.95 31.00 43.83 33.13Q42.70 35.25 42.70 38.20L42.70 52.00L44.50 52.00L44.50 52.90L30.65 52.90L30.65 52.00L33.40 52.00L33.40 30.00L30.65 30.00L30.65 29.10ZM75.05 29.10L87.10 29.10L87.10 33.70Q88.75 28.60 94.38 28.60Q100.00 28.60 101.20 34Q102.95 28.60 108.55 28.60Q115.90 28.60 115.90 36.95L115.90 52.00L118.70 52.00L118.70 52.90L104.85 52.90L104.85 52.00L106.60 52.00L106.60 35.75Q106.60 31.95 105.95 31.30Q105.65 31.00 105.15 31.00Q103.70 31.00 102.60 32.95Q101.50 34.90 101.50 37.90L101.50 52.00L103.30 52.00L103.30 52.90L90.45 52.90L90.45 52.00L92.20 52.00L92.20 35.75Q92.20 31.95 91.55 31.30Q91.25 31.00 90.75 31.00Q89.35 31.00 88.23 33.13Q87.10 35.25 87.10 38.20L87.10 52.00L88.90 52.00L88.90 52.90L75.05 52.90L75.05 52.00L77.80 52.00L77.80 30.00L75.05 30.00L75.05 29.10ZM131.45 41.15L132.90 41.15L132.90 37.30Q132.90 32.55 132.38 30.93Q131.85 29.30 130.35 29.30Q129.45 29.30 128.73 29.78Q128.00 30.25 128.00 31.08Q128.00 31.90 128.30 32.75L129.55 32.75Q129.95 33.80 129.95 35.28Q129.95 36.75 128.70 37.83Q127.45 38.90 125.55 38.90Q121.25 38.90 121.25 34.75Q121.25 28.60 131.70 28.60Q137.65 28.60 139.93 30.63Q142.20 32.65 142.20 38.05L142.20 48.20Q142.20 50.80 143.65 50.80Q145.35 50.80 145.65 45.65L146.40 45.70Q146.20 50.10 144.75 51.75Q143.30 53.40 140.00 53.40Q134.00 53.40 133.10 49.70Q132.45 51.60 131.15 52.50Q129.85 53.40 127.35 53.40Q119.95 53.40 119.95 47.35Q119.95 43.80 122.78 42.48Q125.60 41.15 131.45 41.15M129.45 47.30Q129.45 49.90 129.73 50.65Q130.00 51.40 130.78 51.40Q131.55 51.40 132.23 50.13Q132.90 48.85 132.90 46.60L132.90 41.95L132.55 41.95Q129.45 41.95 129.45 46.50L129.45 47.30ZM147.00 29.10L159.05 29.10L159.05 33.70Q159.85 31.40 161.50 30.00Q163.15 28.60 166.50 28.60Q174.25 28.60 174.25 36.95L174.25 52.00L177.05 52.00L177.05 52.90L162.90 52.90L162.90 52.00L164.95 52.00L164.95 35.75Q164.95 32.75 164.55 31.88Q164.15 31.00 163.10 31.00Q161.50 31.00 160.28 33.10Q159.05 35.20 159.05 38.20L159.05 52.00L161.20 52.00L161.20 52.90L147.00 52.90L147.00 52.00L149.75 52.00L149.75 30.00L147.00 30.00L147.00 29.10ZM205.95 52.90L194.55 52.90L194.00 49.25Q193.20 51.25 191.63 52.33Q190.05 53.40 186.95 53.40Q179.20 53.40 179.20 45.05L179.20 30.00L176.40 30.00L176.40 29.10L188.50 29.10L188.50 46.25Q188.50 49.25 188.93 50.20Q189.35 51.15 190.63 51.15Q191.90 51.15 192.90 49.60Q193.90 48.05 193.90 45.30L193.90 30.00L191.60 30.00L191.60 29.10L203.20 29.10L203.20 52.00L205.95 52.00L205.95 52.90ZM220.10 53.40Q213.65 53.40 210.43 50.08Q207.20 46.75 207.20 40.83Q207.20 34.90 210.83 31.75Q214.45 28.60 220.05 28.60Q231.40 28.60 230.95 40.00L216.85 40.00L216.85 41.95Q216.85 46.85 218.10 49.35Q219.35 51.85 222.45 51.85Q228.25 51.85 230.05 45.65L230.95 45.80Q230.00 49.40 227.53 51.40Q225.05 53.40 220.10 53.40M216.90 39.00L222.05 39.00L222.05 36.55Q222.05 32.50 221.58 31.03Q221.10 29.55 219.68 29.55Q218.25 29.55 217.58 31.13Q216.90 32.70 216.90 36.55L216.90 39.00ZM232.55 15.40L244.80 15.40L244.80 52.00L247.60 52.00L247.60 52.90L232.75 52.90L232.75 52.00L235.50 52.00L235.50 16.30L232.55 16.30L232.55 15.40ZM254.63 53.40Q254.63 53.40 253.54 53.40Q252.45 53.40 251.38 52.13Q250.30 50.85 250.30 49.03Q250.30 47.20 251.43 45.95Q252.55 44.70 254.60 44.70Q256.65 44.70 257.85 45.75Q259.05 46.80 259.05 48.90Q259.05 51.00 257.93 52.20Q256.80 53.40 254.63 53.40Z"/></g></g></g></svg>